<svg width="800" height="400" viewBox="0 0 800 400" fill="none" xmlns="http://www.w3.org/2000/svg">
<rect width="800" height="400" fill="#1E1E1E"/>
<rect width="800" height="400" fill="white"/>
<path d="M560.095 171.608C561.161 169.944 562.633 168.6 564.511 167.576C566.388 166.552 568.585 166.04 571.103 166.04C574.047 166.04 576.713 166.787 579.103 168.28C581.492 169.773 583.369 171.907 584.735 174.68C586.143 177.453 586.847 180.675 586.847 184.344C586.847 188.013 586.143 191.256 584.735 194.072C583.369 196.845 581.492 199 579.103 200.536C576.713 202.029 574.047 202.776 571.103 202.776C568.628 202.776 566.431 202.264 564.511 201.24C562.633 200.216 561.161 198.893 560.095 197.272V219.288H549.151V166.552H560.095V171.608ZM575.711 184.344C575.711 181.613 574.943 179.48 573.407 177.944C571.913 176.365 570.057 175.576 567.839 175.576C565.663 175.576 563.807 176.365 562.271 177.944C560.777 179.523 560.031 181.677 560.031 184.408C560.031 187.139 560.777 189.293 562.271 190.872C563.807 192.451 565.663 193.24 567.839 193.24C570.015 193.24 571.871 192.451 573.407 190.872C574.943 189.251 575.711 187.075 575.711 184.344Z" fill="url(#paint0_linear_0_1)"/>
<path d="M516.017 171.608C517.084 169.944 518.556 168.6 520.433 167.576C522.31 166.552 524.508 166.04 527.025 166.04C529.969 166.04 532.636 166.787 535.025 168.28C537.414 169.773 539.292 171.907 540.657 174.68C542.065 177.453 542.769 180.675 542.769 184.344C542.769 188.013 542.065 191.256 540.657 194.072C539.292 196.845 537.414 199 535.025 200.536C532.636 202.029 529.969 202.776 527.025 202.776C524.55 202.776 522.353 202.264 520.433 201.24C518.556 200.216 517.084 198.893 516.017 197.272V219.288H505.073V166.552H516.017V171.608ZM531.633 184.344C531.633 181.613 530.865 179.48 529.329 177.944C527.836 176.365 525.98 175.576 523.761 175.576C521.585 175.576 519.729 176.365 518.193 177.944C516.7 179.523 515.953 181.677 515.953 184.408C515.953 187.139 516.7 189.293 518.193 190.872C519.729 192.451 521.585 193.24 523.761 193.24C525.937 193.24 527.793 192.451 529.329 190.872C530.865 189.251 531.633 187.075 531.633 184.344Z" fill="url(#paint1_linear_0_1)"/>
<path d="M458.82 184.344C458.82 180.675 459.502 177.453 460.868 174.68C462.276 171.907 464.174 169.773 466.564 168.28C468.953 166.787 471.62 166.04 474.564 166.04C477.081 166.04 479.278 166.552 481.156 167.576C483.076 168.6 484.548 169.944 485.572 171.608V166.552H496.516V202.264H485.572V197.208C484.505 198.872 483.012 200.216 481.092 201.24C479.214 202.264 477.017 202.776 474.5 202.776C471.598 202.776 468.953 202.029 466.564 200.536C464.174 199 462.276 196.845 460.868 194.072C459.502 191.256 458.82 188.013 458.82 184.344ZM485.572 184.408C485.572 181.677 484.804 179.523 483.268 177.944C481.774 176.365 479.94 175.576 477.764 175.576C475.588 175.576 473.732 176.365 472.196 177.944C470.702 179.48 469.956 181.613 469.956 184.344C469.956 187.075 470.702 189.251 472.196 190.872C473.732 192.451 475.588 193.24 477.764 193.24C479.94 193.24 481.774 192.451 483.268 190.872C484.804 189.293 485.572 187.139 485.572 184.408Z" fill="url(#paint2_linear_0_1)"/>
<path d="M447.413 202.776C445.493 202.776 443.914 202.221 442.677 201.112C441.482 199.96 440.885 198.552 440.885 196.888C440.885 195.181 441.482 193.752 442.677 192.6C443.914 191.448 445.493 190.872 447.413 190.872C449.29 190.872 450.826 191.448 452.021 192.6C453.258 193.752 453.877 195.181 453.877 196.888C453.877 198.552 453.258 199.96 452.021 201.112C450.826 202.221 449.29 202.776 447.413 202.776Z" fill="url(#paint3_linear_0_1)"/>
<path d="M428.282 162.84C426.362 162.84 424.783 162.285 423.546 161.176C422.351 160.024 421.754 158.616 421.754 156.952C421.754 155.245 422.351 153.837 423.546 152.728C424.783 151.576 426.362 151 428.282 151C430.159 151 431.695 151.576 432.89 152.728C434.127 153.837 434.746 155.245 434.746 156.952C434.746 158.616 434.127 160.024 432.89 161.176C431.695 162.285 430.159 162.84 428.282 162.84ZM433.722 166.552V202.264H422.778V166.552H433.722Z" fill="url(#paint4_linear_0_1)"/>
<path d="M376.525 184.344C376.525 180.675 377.207 177.453 378.573 174.68C379.981 171.907 381.879 169.773 384.269 168.28C386.658 166.787 389.325 166.04 392.269 166.04C394.786 166.04 396.983 166.552 398.861 167.576C400.781 168.6 402.253 169.944 403.277 171.608V166.552H414.221V202.264H403.277V197.208C402.21 198.872 400.717 200.216 398.797 201.24C396.919 202.264 394.722 202.776 392.205 202.776C389.303 202.776 386.658 202.029 384.269 200.536C381.879 199 379.981 196.845 378.573 194.072C377.207 191.256 376.525 188.013 376.525 184.344ZM403.277 184.408C403.277 181.677 402.509 179.523 400.973 177.944C399.479 176.365 397.645 175.576 395.469 175.576C393.293 175.576 391.437 176.365 389.901 177.944C388.407 179.48 387.661 181.613 387.661 184.344C387.661 187.075 388.407 189.251 389.901 190.872C391.437 192.451 393.293 193.24 395.469 193.24C397.645 193.24 399.479 192.451 400.973 190.872C402.509 189.293 403.277 187.139 403.277 184.408Z" fill="url(#paint5_linear_0_1)"/>
<path d="M356.901 202.776C353.786 202.776 351.013 202.243 348.581 201.176C346.149 200.109 344.229 198.659 342.821 196.824C341.413 194.947 340.624 192.856 340.453 190.552H351.269C351.397 191.789 351.973 192.792 352.997 193.56C354.021 194.328 355.28 194.712 356.773 194.712C358.138 194.712 359.184 194.456 359.909 193.944C360.677 193.389 361.061 192.685 361.061 191.832C361.061 190.808 360.528 190.061 359.461 189.592C358.394 189.08 356.666 188.525 354.277 187.928C351.717 187.331 349.584 186.712 347.877 186.072C346.17 185.389 344.698 184.344 343.461 182.936C342.224 181.485 341.605 179.544 341.605 177.112C341.605 175.064 342.16 173.208 343.269 171.544C344.421 169.837 346.085 168.493 348.261 167.512C350.48 166.531 353.104 166.04 356.133 166.04C360.613 166.04 364.133 167.149 366.693 169.368C369.296 171.587 370.789 174.531 371.173 178.2H361.061C360.89 176.963 360.336 175.981 359.397 175.256C358.501 174.531 357.306 174.168 355.813 174.168C354.533 174.168 353.552 174.424 352.869 174.936C352.186 175.405 351.845 176.067 351.845 176.92C351.845 177.944 352.378 178.712 353.445 179.224C354.554 179.736 356.261 180.248 358.565 180.76C361.21 181.443 363.365 182.125 365.029 182.808C366.693 183.448 368.144 184.515 369.381 186.008C370.661 187.459 371.322 189.421 371.365 191.896C371.365 193.987 370.768 195.864 369.573 197.528C368.421 199.149 366.736 200.429 364.517 201.368C362.341 202.307 359.802 202.776 356.901 202.776Z" fill="url(#paint6_linear_0_1)"/>
<path d="M333.872 166.552V202.264H322.928V197.4C321.819 198.979 320.304 200.259 318.384 201.24C316.507 202.179 314.416 202.648 312.112 202.648C309.381 202.648 306.971 202.051 304.88 200.856C302.789 199.619 301.168 197.848 300.016 195.544C298.864 193.24 298.288 190.531 298.288 187.416V166.552H309.168V185.944C309.168 188.333 309.787 190.189 311.024 191.512C312.261 192.835 313.925 193.496 316.016 193.496C318.149 193.496 319.835 192.835 321.072 191.512C322.309 190.189 322.928 188.333 322.928 185.944V166.552H333.872Z" fill="url(#paint7_linear_0_1)"/>
<path d="M291.872 192.984V202.264H286.304C282.336 202.264 279.243 201.304 277.024 199.384C274.805 197.421 273.696 194.243 273.696 189.848V175.64H269.344V166.552H273.696V157.848H284.64V166.552H291.808V175.64H284.64V189.976C284.64 191.043 284.896 191.811 285.408 192.28C285.92 192.749 286.773 192.984 287.968 192.984H291.872Z" fill="url(#paint8_linear_0_1)"/>
<path d="M234.542 162.014V165.764" stroke="#5AC8FA" stroke-width="2" stroke-linecap="round" stroke-linejoin="round"/>
<path d="M222.792 162.014V165.764" stroke="#5AC8FA" stroke-width="2" stroke-linecap="round" stroke-linejoin="round"/>
<path d="M222.792 163.889H220.833C219.795 163.889 218.798 164.284 218.064 164.987C217.329 165.691 216.917 166.644 216.917 167.639V175.139C216.917 178.123 218.155 180.984 220.358 183.094C222.562 185.204 225.55 186.389 228.667 186.389C231.783 186.389 234.772 185.204 236.975 183.094C239.179 180.984 240.417 178.123 240.417 175.139V167.639C240.417 166.644 240.004 165.691 239.27 164.987C238.535 164.284 237.539 163.889 236.5 163.889H234.542" stroke="#5AC8FA" stroke-width="2" stroke-linecap="round" stroke-linejoin="round"/>
<path d="M228.667 186.389C228.667 189.373 229.905 192.234 232.108 194.344C234.312 196.454 237.3 197.639 240.417 197.639C243.533 197.639 246.522 196.454 248.725 194.344C250.929 192.234 252.167 189.373 252.167 186.389V180.764" stroke="#5AC8FA" stroke-width="2" stroke-linecap="round" stroke-linejoin="round"/>
<path d="M252.167 180.764C254.33 180.764 256.083 179.085 256.083 177.014C256.083 174.943 254.33 173.264 252.167 173.264C250.004 173.264 248.25 174.943 248.25 177.014C248.25 179.085 250.004 180.764 252.167 180.764Z" stroke="#5AC8FA" stroke-width="2" stroke-linecap="round" stroke-linejoin="round"/>
<path d="M239.17 226.718L235.084 234.53V239.264H233.446V234.53L229.342 226.718H231.16L234.256 233.072L237.352 226.718H239.17ZM240.106 234.296C240.106 233.288 240.31 232.406 240.718 231.65C241.126 230.882 241.684 230.288 242.392 229.868C243.112 229.448 243.91 229.238 244.786 229.238C245.65 229.238 246.4 229.424 247.036 229.796C247.672 230.168 248.146 230.636 248.458 231.2V229.4H250.114V239.264H248.458V237.428C248.134 238.004 247.648 238.484 247 238.868C246.364 239.24 245.62 239.426 244.768 239.426C243.892 239.426 243.1 239.21 242.392 238.778C241.684 238.346 241.126 237.74 240.718 236.96C240.31 236.18 240.106 235.292 240.106 234.296ZM248.458 234.314C248.458 233.57 248.308 232.922 248.008 232.37C247.708 231.818 247.3 231.398 246.784 231.11C246.28 230.81 245.722 230.66 245.11 230.66C244.498 230.66 243.94 230.804 243.436 231.092C242.932 231.38 242.53 231.8 242.23 232.352C241.93 232.904 241.78 233.552 241.78 234.296C241.78 235.052 241.93 235.712 242.23 236.276C242.53 236.828 242.932 237.254 243.436 237.554C243.94 237.842 244.498 237.986 245.11 237.986C245.722 237.986 246.28 237.842 246.784 237.554C247.3 237.254 247.708 236.828 248.008 236.276C248.308 235.712 248.458 235.058 248.458 234.314ZM254.34 231.218C254.664 230.654 255.144 230.186 255.78 229.814C256.428 229.43 257.178 229.238 258.03 229.238C258.906 229.238 259.698 229.448 260.406 229.868C261.126 230.288 261.69 230.882 262.098 231.65C262.506 232.406 262.71 233.288 262.71 234.296C262.71 235.292 262.506 236.18 262.098 236.96C261.69 237.74 261.126 238.346 260.406 238.778C259.698 239.21 258.906 239.426 258.03 239.426C257.19 239.426 256.446 239.24 255.798 238.868C255.162 238.484 254.676 238.01 254.34 237.446V243.944H252.702V229.4H254.34V231.218ZM261.036 234.296C261.036 233.552 260.886 232.904 260.586 232.352C260.286 231.8 259.878 231.38 259.362 231.092C258.858 230.804 258.3 230.66 257.688 230.66C257.088 230.66 256.53 230.81 256.014 231.11C255.51 231.398 255.102 231.824 254.79 232.388C254.49 232.94 254.34 233.582 254.34 234.314C254.34 235.058 254.49 235.712 254.79 236.276C255.102 236.828 255.51 237.254 256.014 237.554C256.53 237.842 257.088 237.986 257.688 237.986C258.3 237.986 258.858 237.842 259.362 237.554C259.878 237.254 260.286 236.828 260.586 236.276C260.886 235.712 261.036 235.052 261.036 234.296ZM264.074 234.296C264.074 233.288 264.278 232.406 264.686 231.65C265.094 230.882 265.652 230.288 266.36 229.868C267.08 229.448 267.878 229.238 268.754 229.238C269.618 229.238 270.368 229.424 271.004 229.796C271.64 230.168 272.114 230.636 272.426 231.2V229.4H274.082V239.264H272.426V237.428C272.102 238.004 271.616 238.484 270.968 238.868C270.332 239.24 269.588 239.426 268.736 239.426C267.86 239.426 267.068 239.21 266.36 238.778C265.652 238.346 265.094 237.74 264.686 236.96C264.278 236.18 264.074 235.292 264.074 234.296ZM272.426 234.314C272.426 233.57 272.276 232.922 271.976 232.37C271.676 231.818 271.268 231.398 270.752 231.11C270.248 230.81 269.69 230.66 269.078 230.66C268.466 230.66 267.908 230.804 267.404 231.092C266.9 231.38 266.498 231.8 266.198 232.352C265.898 232.904 265.748 233.552 265.748 234.296C265.748 235.052 265.898 235.712 266.198 236.276C266.498 236.828 266.9 237.254 267.404 237.554C267.908 237.842 268.466 237.986 269.078 237.986C269.69 237.986 270.248 237.842 270.752 237.554C271.268 237.254 271.676 236.828 271.976 236.276C272.276 235.712 272.426 235.058 272.426 234.314ZM285.166 229.4L279.226 243.908H277.534L279.478 239.156L275.5 229.4H277.318L280.414 237.392L283.474 229.4H285.166ZM292.637 237.842H298.757V239.264H290.693V237.968L296.777 228.14H290.765V226.718H298.721V228.014L292.637 237.842ZM309.81 233.954C309.81 234.266 309.792 234.596 309.756 234.944H301.872C301.932 235.916 302.262 236.678 302.862 237.23C303.474 237.77 304.212 238.04 305.076 238.04C305.784 238.04 306.372 237.878 306.84 237.554C307.32 237.218 307.656 236.774 307.848 236.222H309.612C309.348 237.17 308.82 237.944 308.028 238.544C307.236 239.132 306.252 239.426 305.076 239.426C304.14 239.426 303.3 239.216 302.556 238.796C301.824 238.376 301.248 237.782 300.828 237.014C300.408 236.234 300.198 235.334 300.198 234.314C300.198 233.294 300.402 232.4 300.81 231.632C301.218 230.864 301.788 230.276 302.52 229.868C303.264 229.448 304.116 229.238 305.076 229.238C306.012 229.238 306.84 229.442 307.56 229.85C308.28 230.258 308.832 230.822 309.216 231.542C309.612 232.25 309.81 233.054 309.81 233.954ZM308.118 233.612C308.118 232.988 307.98 232.454 307.704 232.01C307.428 231.554 307.05 231.212 306.57 230.984C306.102 230.744 305.58 230.624 305.004 230.624C304.176 230.624 303.468 230.888 302.88 231.416C302.304 231.944 301.974 232.676 301.89 233.612H308.118ZM317.3 239.264L313.43 234.908V239.264H311.792V225.944H313.43V233.774L317.228 229.4H319.514L314.87 234.314L319.532 239.264H317.3ZM320.263 234.296C320.263 233.288 320.467 232.406 320.875 231.65C321.283 230.882 321.841 230.288 322.549 229.868C323.269 229.448 324.067 229.238 324.943 229.238C325.807 229.238 326.557 229.424 327.193 229.796C327.829 230.168 328.303 230.636 328.615 231.2V229.4H330.271V239.264H328.615V237.428C328.291 238.004 327.805 238.484 327.157 238.868C326.521 239.24 325.777 239.426 324.925 239.426C324.049 239.426 323.257 239.21 322.549 238.778C321.841 238.346 321.283 237.74 320.875 236.96C320.467 236.18 320.263 235.292 320.263 234.296ZM328.615 234.314C328.615 233.57 328.465 232.922 328.165 232.37C327.865 231.818 327.457 231.398 326.941 231.11C326.437 230.81 325.879 230.66 325.267 230.66C324.655 230.66 324.097 230.804 323.593 231.092C323.089 231.38 322.687 231.8 322.387 232.352C322.087 232.904 321.937 233.552 321.937 234.296C321.937 235.052 322.087 235.712 322.387 236.276C322.687 236.828 323.089 237.254 323.593 237.554C324.097 237.842 324.655 237.986 325.267 237.986C325.879 237.986 326.437 237.842 326.941 237.554C327.457 237.254 327.865 236.828 328.165 236.276C328.465 235.712 328.615 235.058 328.615 234.314ZM341.384 226.718C342.752 226.718 343.934 226.976 344.93 227.492C345.938 227.996 346.706 228.722 347.234 229.67C347.774 230.618 348.044 231.734 348.044 233.018C348.044 234.302 347.774 235.418 347.234 236.366C346.706 237.302 345.938 238.022 344.93 238.526C343.934 239.018 342.752 239.264 341.384 239.264H337.478V226.718H341.384ZM341.384 237.914C343.004 237.914 344.24 237.488 345.092 236.636C345.944 235.772 346.37 234.566 346.37 233.018C346.37 231.458 345.938 230.24 345.074 229.364C344.222 228.488 342.992 228.05 341.384 228.05H339.116V237.914H341.384ZM359.025 233.954C359.025 234.266 359.007 234.596 358.971 234.944H351.087C351.147 235.916 351.477 236.678 352.077 237.23C352.689 237.77 353.427 238.04 354.291 238.04C354.999 238.04 355.587 237.878 356.055 237.554C356.535 237.218 356.871 236.774 357.063 236.222H358.827C358.563 237.17 358.035 237.944 357.243 238.544C356.451 239.132 355.467 239.426 354.291 239.426C353.355 239.426 352.515 239.216 351.771 238.796C351.039 238.376 350.463 237.782 350.043 237.014C349.623 236.234 349.413 235.334 349.413 234.314C349.413 233.294 349.617 232.4 350.025 231.632C350.433 230.864 351.003 230.276 351.735 229.868C352.479 229.448 353.331 229.238 354.291 229.238C355.227 229.238 356.055 229.442 356.775 229.85C357.495 230.258 358.047 230.822 358.431 231.542C358.827 232.25 359.025 233.054 359.025 233.954ZM357.333 233.612C357.333 232.988 357.195 232.454 356.919 232.01C356.643 231.554 356.265 231.212 355.785 230.984C355.317 230.744 354.795 230.624 354.219 230.624C353.391 230.624 352.683 230.888 352.095 231.416C351.519 231.944 351.189 232.676 351.105 233.612H357.333ZM364.499 239.426C363.743 239.426 363.065 239.3 362.465 239.048C361.865 238.784 361.391 238.424 361.043 237.968C360.695 237.5 360.503 236.966 360.467 236.366H362.159C362.207 236.858 362.435 237.26 362.843 237.572C363.263 237.884 363.809 238.04 364.481 238.04C365.105 238.04 365.597 237.902 365.957 237.626C366.317 237.35 366.497 237.002 366.497 236.582C366.497 236.15 366.305 235.832 365.921 235.628C365.537 235.412 364.943 235.202 364.139 234.998C363.407 234.806 362.807 234.614 362.339 234.422C361.883 234.218 361.487 233.924 361.151 233.54C360.827 233.144 360.665 232.628 360.665 231.992C360.665 231.488 360.815 231.026 361.115 230.606C361.415 230.186 361.841 229.856 362.393 229.616C362.945 229.364 363.575 229.238 364.283 229.238C365.375 229.238 366.257 229.514 366.929 230.066C367.601 230.618 367.961 231.374 368.009 232.334H366.371C366.335 231.818 366.125 231.404 365.741 231.092C365.369 230.78 364.865 230.624 364.229 230.624C363.641 230.624 363.173 230.75 362.825 231.002C362.477 231.254 362.303 231.584 362.303 231.992C362.303 232.316 362.405 232.586 362.609 232.802C362.825 233.006 363.089 233.174 363.401 233.306C363.725 233.426 364.169 233.564 364.733 233.72C365.441 233.912 366.017 234.104 366.461 234.296C366.905 234.476 367.283 234.752 367.595 235.124C367.919 235.496 368.087 235.982 368.099 236.582C368.099 237.122 367.949 237.608 367.649 238.04C367.349 238.472 366.923 238.814 366.371 239.066C365.831 239.306 365.207 239.426 364.499 239.426ZM372.229 230.75V236.564C372.229 237.044 372.331 237.386 372.535 237.59C372.739 237.782 373.093 237.878 373.597 237.878H374.803V239.264H373.327C372.415 239.264 371.731 239.054 371.275 238.634C370.819 238.214 370.591 237.524 370.591 236.564V230.75H369.313V229.4H370.591V226.916H372.229V229.4H374.803V230.75H372.229ZM385.608 233.954C385.608 234.266 385.59 234.596 385.554 234.944H377.67C377.73 235.916 378.06 236.678 378.66 237.23C379.272 237.77 380.01 238.04 380.874 238.04C381.582 238.04 382.17 237.878 382.638 237.554C383.118 237.218 383.454 236.774 383.646 236.222H385.41C385.146 237.17 384.618 237.944 383.826 238.544C383.034 239.132 382.05 239.426 380.874 239.426C379.938 239.426 379.098 239.216 378.354 238.796C377.622 238.376 377.046 237.782 376.626 237.014C376.206 236.234 375.996 235.334 375.996 234.314C375.996 233.294 376.2 232.4 376.608 231.632C377.016 230.864 377.586 230.276 378.318 229.868C379.062 229.448 379.914 229.238 380.874 229.238C381.81 229.238 382.638 229.442 383.358 229.85C384.078 230.258 384.63 230.822 385.014 231.542C385.41 232.25 385.608 233.054 385.608 233.954ZM383.916 233.612C383.916 232.988 383.778 232.454 383.502 232.01C383.226 231.554 382.848 231.212 382.368 230.984C381.9 230.744 381.378 230.624 380.802 230.624C379.974 230.624 379.266 230.888 378.678 231.416C378.102 231.944 377.772 232.676 377.688 233.612H383.916ZM393.098 239.264L389.228 234.908V239.264H387.59V225.944H389.228V233.774L393.026 229.4H395.312L390.668 234.314L395.33 239.264H393.098ZM398.312 225.944V239.264H396.674V225.944H398.312ZM401.769 227.798C401.457 227.798 401.193 227.69 400.977 227.474C400.761 227.258 400.653 226.994 400.653 226.682C400.653 226.37 400.761 226.106 400.977 225.89C401.193 225.674 401.457 225.566 401.769 225.566C402.069 225.566 402.321 225.674 402.525 225.89C402.741 226.106 402.849 226.37 402.849 226.682C402.849 226.994 402.741 227.258 402.525 227.474C402.321 227.69 402.069 227.798 401.769 227.798ZM402.561 229.4V239.264H400.923V229.4H402.561ZM417.514 226.718V228.05H414.094V239.264H412.456V228.05H409.018V226.718H417.514ZM420.952 226.718V234.656C420.952 235.772 421.222 236.6 421.762 237.14C422.314 237.68 423.076 237.95 424.048 237.95C425.008 237.95 425.758 237.68 426.298 237.14C426.85 236.6 427.126 235.772 427.126 234.656V226.718H428.764V234.638C428.764 235.682 428.554 236.564 428.134 237.284C427.714 237.992 427.144 238.52 426.424 238.868C425.716 239.216 424.918 239.39 424.03 239.39C423.142 239.39 422.338 239.216 421.618 238.868C420.91 238.52 420.346 237.992 419.926 237.284C419.518 236.564 419.314 235.682 419.314 234.638V226.718H420.952ZM435.295 239.39C434.467 239.39 433.723 239.246 433.063 238.958C432.415 238.658 431.905 238.25 431.533 237.734C431.161 237.206 430.969 236.6 430.957 235.916H432.703C432.763 236.504 433.003 237.002 433.423 237.41C433.855 237.806 434.479 238.004 435.295 238.004C436.075 238.004 436.687 237.812 437.131 237.428C437.587 237.032 437.815 236.528 437.815 235.916C437.815 235.436 437.683 235.046 437.419 234.746C437.155 234.446 436.825 234.218 436.429 234.062C436.033 233.906 435.499 233.738 434.827 233.558C433.999 233.342 433.333 233.126 432.829 232.91C432.337 232.694 431.911 232.358 431.551 231.902C431.203 231.434 431.029 230.81 431.029 230.03C431.029 229.346 431.203 228.74 431.551 228.212C431.899 227.684 432.385 227.276 433.009 226.988C433.645 226.7 434.371 226.556 435.187 226.556C436.363 226.556 437.323 226.85 438.067 227.438C438.823 228.026 439.249 228.806 439.345 229.778H437.545C437.485 229.298 437.233 228.878 436.789 228.518C436.345 228.146 435.757 227.96 435.025 227.96C434.341 227.96 433.783 228.14 433.351 228.5C432.919 228.848 432.703 229.34 432.703 229.976C432.703 230.432 432.829 230.804 433.081 231.092C433.345 231.38 433.663 231.602 434.035 231.758C434.419 231.902 434.953 232.07 435.637 232.262C436.465 232.49 437.131 232.718 437.635 232.946C438.139 233.162 438.571 233.504 438.931 233.972C439.291 234.428 439.471 235.052 439.471 235.844C439.471 236.456 439.309 237.032 438.985 237.572C438.661 238.112 438.181 238.55 437.545 238.886C436.909 239.222 436.159 239.39 435.295 239.39ZM455.986 226.718V239.264H454.348V233.576H447.958V239.264H446.32V226.718H447.958V232.226H454.348V226.718H455.986ZM457.991 234.296C457.991 233.288 458.195 232.406 458.603 231.65C459.011 230.882 459.569 230.288 460.277 229.868C460.997 229.448 461.795 229.238 462.671 229.238C463.535 229.238 464.285 229.424 464.921 229.796C465.557 230.168 466.031 230.636 466.343 231.2V229.4H467.999V239.264H466.343V237.428C466.019 238.004 465.533 238.484 464.885 238.868C464.249 239.24 463.505 239.426 462.653 239.426C461.777 239.426 460.985 239.21 460.277 238.778C459.569 238.346 459.011 237.74 458.603 236.96C458.195 236.18 457.991 235.292 457.991 234.296ZM466.343 234.314C466.343 233.57 466.193 232.922 465.893 232.37C465.593 231.818 465.185 231.398 464.669 231.11C464.165 230.81 463.607 230.66 462.995 230.66C462.383 230.66 461.825 230.804 461.321 231.092C460.817 231.38 460.415 231.8 460.115 232.352C459.815 232.904 459.665 233.552 459.665 234.296C459.665 235.052 459.815 235.712 460.115 236.276C460.415 236.828 460.817 237.254 461.321 237.554C461.825 237.842 462.383 237.986 462.995 237.986C463.607 237.986 464.165 237.842 464.669 237.554C465.185 237.254 465.593 236.828 465.893 236.276C466.193 235.712 466.343 235.058 466.343 234.314ZM471.811 237.914H476.653V239.264H469.939V237.914L474.727 230.732H469.975V229.4H476.617V230.732L471.811 237.914ZM480.236 229.4V239.264H478.598V229.4H480.236ZM484.486 231.002C484.774 230.438 485.182 230 485.71 229.688C486.25 229.376 486.904 229.22 487.672 229.22V230.912H487.24C485.404 230.912 484.486 231.908 484.486 233.9V239.264H482.848V229.4H484.486V231.002ZM491.021 225.944V239.264H489.383V225.944H491.021ZM495.27 229.4V239.264H493.632V229.4H495.27ZM503.39 239.264L499.52 234.908V239.264H497.882V225.944H499.52V233.774L503.318 229.4H505.604L500.96 234.314L505.622 239.264H503.39ZM519.001 236.474H513.529L512.521 239.264H510.793L515.329 226.79H517.219L521.737 239.264H520.009L519.001 236.474ZM518.533 235.142L516.265 228.806L513.997 235.142H518.533ZM527.026 239.426C526.27 239.426 525.592 239.3 524.992 239.048C524.392 238.784 523.918 238.424 523.57 237.968C523.222 237.5 523.03 236.966 522.994 236.366H524.686C524.734 236.858 524.962 237.26 525.37 237.572C525.79 237.884 526.336 238.04 527.008 238.04C527.632 238.04 528.124 237.902 528.484 237.626C528.844 237.35 529.024 237.002 529.024 236.582C529.024 236.15 528.832 235.832 528.448 235.628C528.064 235.412 527.47 235.202 526.666 234.998C525.934 234.806 525.334 234.614 524.866 234.422C524.41 234.218 524.014 233.924 523.678 233.54C523.354 233.144 523.192 232.628 523.192 231.992C523.192 231.488 523.342 231.026 523.642 230.606C523.942 230.186 524.368 229.856 524.92 229.616C525.472 229.364 526.102 229.238 526.81 229.238C527.902 229.238 528.784 229.514 529.456 230.066C530.128 230.618 530.488 231.374 530.536 232.334H528.898C528.862 231.818 528.652 231.404 528.268 231.092C527.896 230.78 527.392 230.624 526.756 230.624C526.168 230.624 525.7 230.75 525.352 231.002C525.004 231.254 524.83 231.584 524.83 231.992C524.83 232.316 524.932 232.586 525.136 232.802C525.352 233.006 525.616 233.174 525.928 233.306C526.252 233.426 526.696 233.564 527.26 233.72C527.968 233.912 528.544 234.104 528.988 234.296C529.432 234.476 529.81 234.752 530.122 235.124C530.446 235.496 530.614 235.982 530.626 236.582C530.626 237.122 530.476 237.608 530.176 238.04C529.876 238.472 529.45 238.814 528.898 239.066C528.358 239.306 527.734 239.426 527.026 239.426ZM533.604 227.798C533.292 227.798 533.028 227.69 532.812 227.474C532.596 227.258 532.488 226.994 532.488 226.682C532.488 226.37 532.596 226.106 532.812 225.89C533.028 225.674 533.292 225.566 533.604 225.566C533.904 225.566 534.156 225.674 534.36 225.89C534.576 226.106 534.684 226.37 534.684 226.682C534.684 226.994 534.576 227.258 534.36 227.474C534.156 227.69 533.904 227.798 533.604 227.798ZM534.396 229.4V239.264H532.758V229.4H534.396ZM540.5 239.426C539.744 239.426 539.066 239.3 538.466 239.048C537.866 238.784 537.392 238.424 537.044 237.968C536.696 237.5 536.504 236.966 536.468 236.366H538.16C538.208 236.858 538.436 237.26 538.844 237.572C539.264 237.884 539.81 238.04 540.482 238.04C541.106 238.04 541.598 237.902 541.958 237.626C542.318 237.35 542.498 237.002 542.498 236.582C542.498 236.15 542.306 235.832 541.922 235.628C541.538 235.412 540.944 235.202 540.14 234.998C539.408 234.806 538.808 234.614 538.34 234.422C537.884 234.218 537.488 233.924 537.152 233.54C536.828 233.144 536.666 232.628 536.666 231.992C536.666 231.488 536.816 231.026 537.116 230.606C537.416 230.186 537.842 229.856 538.394 229.616C538.946 229.364 539.576 229.238 540.284 229.238C541.376 229.238 542.258 229.514 542.93 230.066C543.602 230.618 543.962 231.374 544.01 232.334H542.372C542.336 231.818 542.126 231.404 541.742 231.092C541.37 230.78 540.866 230.624 540.23 230.624C539.642 230.624 539.174 230.75 538.826 231.002C538.478 231.254 538.304 231.584 538.304 231.992C538.304 232.316 538.406 232.586 538.61 232.802C538.826 233.006 539.09 233.174 539.402 233.306C539.726 233.426 540.17 233.564 540.734 233.72C541.442 233.912 542.018 234.104 542.462 234.296C542.906 234.476 543.284 234.752 543.596 235.124C543.92 235.496 544.088 235.982 544.1 236.582C544.1 237.122 543.95 237.608 543.65 238.04C543.35 238.472 542.924 238.814 542.372 239.066C541.832 239.306 541.208 239.426 540.5 239.426ZM548.23 230.75V236.564C548.23 237.044 548.332 237.386 548.536 237.59C548.74 237.782 549.094 237.878 549.598 237.878H550.804V239.264H549.328C548.416 239.264 547.732 239.054 547.276 238.634C546.82 238.214 546.592 237.524 546.592 236.564V230.75H545.314V229.4H546.592V226.916H548.23V229.4H550.804V230.75H548.23ZM551.997 234.296C551.997 233.288 552.201 232.406 552.609 231.65C553.017 230.882 553.575 230.288 554.283 229.868C555.003 229.448 555.801 229.238 556.677 229.238C557.541 229.238 558.291 229.424 558.927 229.796C559.563 230.168 560.037 230.636 560.349 231.2V229.4H562.005V239.264H560.349V237.428C560.025 238.004 559.539 238.484 558.891 238.868C558.255 239.24 557.511 239.426 556.659 239.426C555.783 239.426 554.991 239.21 554.283 238.778C553.575 238.346 553.017 237.74 552.609 236.96C552.201 236.18 551.997 235.292 551.997 234.296ZM560.349 234.314C560.349 233.57 560.199 232.922 559.899 232.37C559.599 231.818 559.191 231.398 558.675 231.11C558.171 230.81 557.613 230.66 557.001 230.66C556.389 230.66 555.831 230.804 555.327 231.092C554.823 231.38 554.421 231.8 554.121 232.352C553.821 232.904 553.671 233.552 553.671 234.296C553.671 235.052 553.821 235.712 554.121 236.276C554.421 236.828 554.823 237.254 555.327 237.554C555.831 237.842 556.389 237.986 557.001 237.986C557.613 237.986 558.171 237.842 558.675 237.554C559.191 237.254 559.599 236.828 559.899 236.276C560.199 235.712 560.349 235.058 560.349 234.314ZM569.399 229.22C570.599 229.22 571.571 229.586 572.315 230.318C573.059 231.038 573.431 232.082 573.431 233.45V239.264H571.811V233.684C571.811 232.7 571.565 231.95 571.073 231.434C570.581 230.906 569.909 230.642 569.057 230.642C568.193 230.642 567.503 230.912 566.987 231.452C566.483 231.992 566.231 232.778 566.231 233.81V239.264H564.593V229.4H566.231V230.804C566.555 230.3 566.993 229.91 567.545 229.634C568.109 229.358 568.727 229.22 569.399 229.22ZM577.564 229.4V239.264H575.926V229.4H577.564Z" fill="#5AC8FA"/>
<defs>
<linearGradient id="paint0_linear_0_1" x1="549.151" y1="192.664" x2="586.847" y2="192.664" gradientUnits="userSpaceOnUse">
<stop stop-color="#4836B6" stop-opacity="0.9"/>
<stop offset="1" stop-color="#5AC8FA"/>
</linearGradient>
<linearGradient id="paint1_linear_0_1" x1="505.073" y1="192.664" x2="542.769" y2="192.664" gradientUnits="userSpaceOnUse">
<stop stop-color="#4836B6" stop-opacity="0.9"/>
<stop offset="1" stop-color="#5AC8FA"/>
</linearGradient>
<linearGradient id="paint2_linear_0_1" x1="458.82" y1="184.408" x2="496.516" y2="184.408" gradientUnits="userSpaceOnUse">
<stop stop-color="#4836B6" stop-opacity="0.9"/>
<stop offset="1" stop-color="#5AC8FA"/>
</linearGradient>
<linearGradient id="paint3_linear_0_1" x1="440.885" y1="196.824" x2="453.877" y2="196.824" gradientUnits="userSpaceOnUse">
<stop stop-color="#4836B6" stop-opacity="0.9"/>
<stop offset="1" stop-color="#5AC8FA"/>
</linearGradient>
<linearGradient id="paint4_linear_0_1" x1="421.754" y1="176.632" x2="434.746" y2="176.632" gradientUnits="userSpaceOnUse">
<stop stop-color="#4836B6" stop-opacity="0.9"/>
<stop offset="1" stop-color="#5AC8FA"/>
</linearGradient>
<linearGradient id="paint5_linear_0_1" x1="376.525" y1="184.408" x2="414.221" y2="184.408" gradientUnits="userSpaceOnUse">
<stop stop-color="#4836B6" stop-opacity="0.9"/>
<stop offset="1" stop-color="#5AC8FA"/>
</linearGradient>
<linearGradient id="paint6_linear_0_1" x1="340.453" y1="184.408" x2="371.365" y2="184.408" gradientUnits="userSpaceOnUse">
<stop stop-color="#4836B6" stop-opacity="0.9"/>
<stop offset="1" stop-color="#5AC8FA"/>
</linearGradient>
<linearGradient id="paint7_linear_0_1" x1="298.288" y1="184.6" x2="333.872" y2="184.6" gradientUnits="userSpaceOnUse">
<stop stop-color="#4836B6" stop-opacity="0.9"/>
<stop offset="1" stop-color="#5AC8FA"/>
</linearGradient>
<linearGradient id="paint8_linear_0_1" x1="269.344" y1="180.056" x2="291.872" y2="180.056" gradientUnits="userSpaceOnUse">
<stop stop-color="#4836B6" stop-opacity="0.9"/>
<stop offset="1" stop-color="#5AC8FA"/>
</linearGradient>
</defs>
</svg>
