<svg width="374" height="98" viewBox="0 0 374 98" fill="none" xmlns="http://www.w3.org/2000/svg">
<path d="M347.095 20.608C348.161 18.944 349.633 17.6 351.511 16.576C353.388 15.552 355.585 15.04 358.103 15.04C361.047 15.04 363.713 15.7867 366.103 17.28C368.492 18.7733 370.369 20.9067 371.735 23.68C373.143 26.4533 373.847 29.6747 373.847 33.344C373.847 37.0133 373.143 40.256 371.735 43.072C370.369 45.8453 368.492 48 366.103 49.536C363.713 51.0293 361.047 51.776 358.103 51.776C355.628 51.776 353.431 51.264 351.511 50.24C349.633 49.216 348.161 47.8933 347.095 46.272V68.288H336.151V15.552H347.095V20.608ZM362.711 33.344C362.711 30.6133 361.943 28.48 360.407 26.944C358.913 25.3653 357.057 24.576 354.839 24.576C352.663 24.576 350.807 25.3653 349.271 26.944C347.777 28.5227 347.031 30.6773 347.031 33.408C347.031 36.1387 347.777 38.2933 349.271 39.872C350.807 41.4507 352.663 42.24 354.839 42.24C357.015 42.24 358.871 41.4507 360.407 39.872C361.943 38.2507 362.711 36.0747 362.711 33.344Z" fill="url(#paint0_linear_2_42)"/>
<path d="M303.017 20.608C304.084 18.944 305.556 17.6 307.433 16.576C309.31 15.552 311.508 15.04 314.025 15.04C316.969 15.04 319.636 15.7867 322.025 17.28C324.414 18.7733 326.292 20.9067 327.657 23.68C329.065 26.4533 329.769 29.6747 329.769 33.344C329.769 37.0133 329.065 40.256 327.657 43.072C326.292 45.8453 324.414 48 322.025 49.536C319.636 51.0293 316.969 51.776 314.025 51.776C311.55 51.776 309.353 51.264 307.433 50.24C305.556 49.216 304.084 47.8933 303.017 46.272V68.288H292.073V15.552H303.017V20.608ZM318.633 33.344C318.633 30.6133 317.865 28.48 316.329 26.944C314.836 25.3653 312.98 24.576 310.761 24.576C308.585 24.576 306.729 25.3653 305.193 26.944C303.7 28.5227 302.953 30.6773 302.953 33.408C302.953 36.1387 303.7 38.2933 305.193 39.872C306.729 41.4507 308.585 42.24 310.761 42.24C312.937 42.24 314.793 41.4507 316.329 39.872C317.865 38.2507 318.633 36.0747 318.633 33.344Z" fill="url(#paint1_linear_2_42)"/>
<path d="M245.82 33.344C245.82 29.6747 246.502 26.4533 247.868 23.68C249.276 20.9067 251.174 18.7733 253.564 17.28C255.953 15.7867 258.62 15.04 261.564 15.04C264.081 15.04 266.278 15.552 268.156 16.576C270.076 17.6 271.548 18.944 272.572 20.608V15.552H283.516V51.264H272.572V46.208C271.505 47.872 270.012 49.216 268.092 50.24C266.214 51.264 264.017 51.776 261.5 51.776C258.598 51.776 255.953 51.0293 253.564 49.536C251.174 48 249.276 45.8453 247.868 43.072C246.502 40.256 245.82 37.0133 245.82 33.344ZM272.572 33.408C272.572 30.6773 271.804 28.5227 270.268 26.944C268.774 25.3653 266.94 24.576 264.764 24.576C262.588 24.576 260.732 25.3653 259.196 26.944C257.702 28.48 256.956 30.6133 256.956 33.344C256.956 36.0747 257.702 38.2507 259.196 39.872C260.732 41.4507 262.588 42.24 264.764 42.24C266.94 42.24 268.774 41.4507 270.268 39.872C271.804 38.2933 272.572 36.1387 272.572 33.408Z" fill="url(#paint2_linear_2_42)"/>
<path d="M234.413 51.776C232.493 51.776 230.914 51.2213 229.677 50.112C228.482 48.96 227.885 47.552 227.885 45.888C227.885 44.1813 228.482 42.752 229.677 41.6C230.914 40.448 232.493 39.872 234.413 39.872C236.29 39.872 237.826 40.448 239.021 41.6C240.258 42.752 240.877 44.1813 240.877 45.888C240.877 47.552 240.258 48.96 239.021 50.112C237.826 51.2213 236.29 51.776 234.413 51.776Z" fill="url(#paint3_linear_2_42)"/>
<path d="M215.282 11.84C213.362 11.84 211.783 11.2853 210.546 10.176C209.351 9.024 208.754 7.616 208.754 5.952C208.754 4.24534 209.351 2.83733 210.546 1.728C211.783 0.576 213.362 0 215.282 0C217.159 0 218.695 0.576 219.89 1.728C221.127 2.83733 221.746 4.24534 221.746 5.952C221.746 7.616 221.127 9.024 219.89 10.176C218.695 11.2853 217.159 11.84 215.282 11.84ZM220.722 15.552V51.264H209.778V15.552H220.722Z" fill="url(#paint4_linear_2_42)"/>
<path d="M163.525 33.344C163.525 29.6747 164.207 26.4533 165.573 23.68C166.981 20.9067 168.879 18.7733 171.269 17.28C173.658 15.7867 176.325 15.04 179.269 15.04C181.786 15.04 183.983 15.552 185.861 16.576C187.781 17.6 189.253 18.944 190.277 20.608V15.552H201.221V51.264H190.277V46.208C189.21 47.872 187.717 49.216 185.797 50.24C183.919 51.264 181.722 51.776 179.205 51.776C176.303 51.776 173.658 51.0293 171.269 49.536C168.879 48 166.981 45.8453 165.573 43.072C164.207 40.256 163.525 37.0133 163.525 33.344ZM190.277 33.408C190.277 30.6773 189.509 28.5227 187.973 26.944C186.479 25.3653 184.645 24.576 182.469 24.576C180.293 24.576 178.437 25.3653 176.901 26.944C175.407 28.48 174.661 30.6133 174.661 33.344C174.661 36.0747 175.407 38.2507 176.901 39.872C178.437 41.4507 180.293 42.24 182.469 42.24C184.645 42.24 186.479 41.4507 187.973 39.872C189.509 38.2933 190.277 36.1387 190.277 33.408Z" fill="url(#paint5_linear_2_42)"/>
<path d="M143.901 51.776C140.786 51.776 138.013 51.2427 135.581 50.176C133.149 49.1093 131.229 47.6587 129.821 45.824C128.413 43.9467 127.624 41.856 127.453 39.552H138.269C138.397 40.7893 138.973 41.792 139.997 42.56C141.021 43.328 142.28 43.712 143.773 43.712C145.138 43.712 146.184 43.456 146.909 42.944C147.677 42.3893 148.061 41.6853 148.061 40.832C148.061 39.808 147.528 39.0613 146.461 38.592C145.394 38.08 143.666 37.5253 141.277 36.928C138.717 36.3307 136.584 35.712 134.877 35.072C133.17 34.3893 131.698 33.344 130.461 31.936C129.224 30.4853 128.605 28.544 128.605 26.112C128.605 24.064 129.16 22.208 130.269 20.544C131.421 18.8373 133.085 17.4933 135.261 16.512C137.48 15.5307 140.104 15.04 143.133 15.04C147.613 15.04 151.133 16.1493 153.693 18.368C156.296 20.5867 157.789 23.5307 158.173 27.2H148.061C147.89 25.9627 147.336 24.9813 146.397 24.256C145.501 23.5307 144.306 23.168 142.813 23.168C141.533 23.168 140.552 23.424 139.869 23.936C139.186 24.4053 138.845 25.0667 138.845 25.92C138.845 26.944 139.378 27.712 140.445 28.224C141.554 28.736 143.261 29.248 145.565 29.76C148.21 30.4427 150.365 31.1253 152.029 31.808C153.693 32.448 155.144 33.5147 156.381 35.008C157.661 36.4587 158.322 38.4213 158.365 40.896C158.365 42.9867 157.768 44.864 156.573 46.528C155.421 48.1493 153.736 49.4293 151.517 50.368C149.341 51.3067 146.802 51.776 143.901 51.776Z" fill="url(#paint6_linear_2_42)"/>
<path d="M120.872 15.552V51.264H109.928V46.4C108.819 47.9787 107.304 49.2587 105.384 50.24C103.507 51.1787 101.416 51.648 99.112 51.648C96.3813 51.648 93.9707 51.0507 91.88 49.856C89.7893 48.6187 88.168 46.848 87.016 44.544C85.864 42.24 85.288 39.5307 85.288 36.416V15.552H96.168V34.944C96.168 37.3333 96.7867 39.1893 98.024 40.512C99.2613 41.8347 100.925 42.496 103.016 42.496C105.149 42.496 106.835 41.8347 108.072 40.512C109.309 39.1893 109.928 37.3333 109.928 34.944V15.552H120.872Z" fill="url(#paint7_linear_2_42)"/>
<path d="M78.872 41.984V51.264H73.304C69.336 51.264 66.2427 50.304 64.024 48.384C61.8053 46.4213 60.696 43.2427 60.696 38.848V24.64H56.344V15.552H60.696V6.84801H71.64V15.552H78.808V24.64H71.64V38.976C71.64 40.0427 71.896 40.8107 72.408 41.28C72.92 41.7493 73.7733 41.984 74.968 41.984H78.872Z" fill="url(#paint8_linear_2_42)"/>
<g clip-path="url(#clip0_2_42)">
<path d="M21.5417 11.014V14.764" stroke="#5AC8FA" stroke-width="2" stroke-linecap="round" stroke-linejoin="round"/>
<path d="M9.79167 11.014V14.764" stroke="#5AC8FA" stroke-width="2" stroke-linecap="round" stroke-linejoin="round"/>
<path d="M9.79167 12.889H7.83334C6.79457 12.889 5.79835 13.2841 5.06384 13.9874C4.32932 14.6906 3.91667 15.6444 3.91667 16.639V24.139C3.91667 27.1227 5.15461 29.9842 7.35817 32.094C9.56172 34.2037 12.5504 35.389 15.6667 35.389C18.783 35.389 21.7716 34.2037 23.9752 32.094C26.1787 29.9842 27.4167 27.1227 27.4167 24.139V16.639C27.4167 15.6444 27.004 14.6906 26.2695 13.9874C25.535 13.2841 24.5388 12.889 23.5 12.889H21.5417" stroke="#5AC8FA" stroke-width="2" stroke-linecap="round" stroke-linejoin="round"/>
<path d="M15.6667 35.389C15.6667 38.3727 16.9046 41.2342 19.1082 43.344C21.3117 45.4537 24.3004 46.639 27.4167 46.639C30.533 46.639 33.5216 45.4537 35.7252 43.344C37.9287 41.2342 39.1667 38.3727 39.1667 35.389V29.764" stroke="#5AC8FA" stroke-width="2" stroke-linecap="round" stroke-linejoin="round"/>
<path d="M39.1667 29.764C41.3298 29.764 43.0833 28.0851 43.0833 26.014C43.0833 23.9429 41.3298 22.264 39.1667 22.264C37.0036 22.264 35.25 23.9429 35.25 26.014C35.25 28.0851 37.0036 29.764 39.1667 29.764Z" stroke="#5AC8FA" stroke-width="2" stroke-linecap="round" stroke-linejoin="round"/>
</g>
<path d="M26.17 75.718L22.084 83.53V88.264H20.446V83.53L16.342 75.718H18.16L21.256 82.072L24.352 75.718H26.17ZM27.1057 83.296C27.1057 82.288 27.3097 81.406 27.7177 80.65C28.1257 79.882 28.6837 79.288 29.3917 78.868C30.1117 78.448 30.9097 78.238 31.7857 78.238C32.6497 78.238 33.3997 78.424 34.0357 78.796C34.6717 79.168 35.1457 79.636 35.4577 80.2V78.4H37.1137V88.264H35.4577V86.428C35.1337 87.004 34.6477 87.484 33.9997 87.868C33.3637 88.24 32.6197 88.426 31.7677 88.426C30.8917 88.426 30.0997 88.21 29.3917 87.778C28.6837 87.346 28.1257 86.74 27.7177 85.96C27.3097 85.18 27.1057 84.292 27.1057 83.296ZM35.4577 83.314C35.4577 82.57 35.3077 81.922 35.0077 81.37C34.7077 80.818 34.2997 80.398 33.7837 80.11C33.2797 79.81 32.7217 79.66 32.1097 79.66C31.4977 79.66 30.9397 79.804 30.4357 80.092C29.9317 80.38 29.5297 80.8 29.2297 81.352C28.9297 81.904 28.7797 82.552 28.7797 83.296C28.7797 84.052 28.9297 84.712 29.2297 85.276C29.5297 85.828 29.9317 86.254 30.4357 86.554C30.9397 86.842 31.4977 86.986 32.1097 86.986C32.7217 86.986 33.2797 86.842 33.7837 86.554C34.2997 86.254 34.7077 85.828 35.0077 85.276C35.3077 84.712 35.4577 84.058 35.4577 83.314ZM41.3398 80.218C41.6638 79.654 42.1438 79.186 42.7798 78.814C43.4278 78.43 44.1778 78.238 45.0298 78.238C45.9058 78.238 46.6978 78.448 47.4058 78.868C48.1258 79.288 48.6898 79.882 49.0978 80.65C49.5058 81.406 49.7098 82.288 49.7098 83.296C49.7098 84.292 49.5058 85.18 49.0978 85.96C48.6898 86.74 48.1258 87.346 47.4058 87.778C46.6978 88.21 45.9058 88.426 45.0298 88.426C44.1898 88.426 43.4458 88.24 42.7978 87.868C42.1618 87.484 41.6758 87.01 41.3398 86.446V92.944H39.7018V78.4H41.3398V80.218ZM48.0358 83.296C48.0358 82.552 47.8858 81.904 47.5858 81.352C47.2858 80.8 46.8778 80.38 46.3618 80.092C45.8578 79.804 45.2998 79.66 44.6878 79.66C44.0878 79.66 43.5298 79.81 43.0138 80.11C42.5098 80.398 42.1018 80.824 41.7898 81.388C41.4898 81.94 41.3398 82.582 41.3398 83.314C41.3398 84.058 41.4898 84.712 41.7898 85.276C42.1018 85.828 42.5098 86.254 43.0138 86.554C43.5298 86.842 44.0878 86.986 44.6878 86.986C45.2998 86.986 45.8578 86.842 46.3618 86.554C46.8778 86.254 47.2858 85.828 47.5858 85.276C47.8858 84.712 48.0358 84.052 48.0358 83.296ZM51.0738 83.296C51.0738 82.288 51.2778 81.406 51.6858 80.65C52.0938 79.882 52.6518 79.288 53.3598 78.868C54.0798 78.448 54.8778 78.238 55.7538 78.238C56.6178 78.238 57.3678 78.424 58.0038 78.796C58.6398 79.168 59.1138 79.636 59.4258 80.2V78.4H61.0818V88.264H59.4258V86.428C59.1018 87.004 58.6158 87.484 57.9678 87.868C57.3318 88.24 56.5878 88.426 55.7358 88.426C54.8598 88.426 54.0678 88.21 53.3598 87.778C52.6518 87.346 52.0938 86.74 51.6858 85.96C51.2778 85.18 51.0738 84.292 51.0738 83.296ZM59.4258 83.314C59.4258 82.57 59.2758 81.922 58.9758 81.37C58.6758 80.818 58.2678 80.398 57.7518 80.11C57.2478 79.81 56.6898 79.66 56.0778 79.66C55.4658 79.66 54.9078 79.804 54.4038 80.092C53.8998 80.38 53.4978 80.8 53.1978 81.352C52.8978 81.904 52.7478 82.552 52.7478 83.296C52.7478 84.052 52.8978 84.712 53.1978 85.276C53.4978 85.828 53.8998 86.254 54.4038 86.554C54.9078 86.842 55.4658 86.986 56.0778 86.986C56.6898 86.986 57.2478 86.842 57.7518 86.554C58.2678 86.254 58.6758 85.828 58.9758 85.276C59.2758 84.712 59.4258 84.058 59.4258 83.314ZM72.1659 78.4L66.2259 92.908H64.5339L66.4779 88.156L62.4999 78.4H64.3179L67.4139 86.392L70.4739 78.4H72.1659ZM79.6373 86.842H85.7573V88.264H77.6933V86.968L83.7773 77.14H77.7653V75.718H85.7213V77.014L79.6373 86.842ZM96.8096 82.954C96.8096 83.266 96.7916 83.596 96.7556 83.944H88.8716C88.9316 84.916 89.2616 85.678 89.8616 86.23C90.4736 86.77 91.2116 87.04 92.0756 87.04C92.7836 87.04 93.3716 86.878 93.8396 86.554C94.3196 86.218 94.6556 85.774 94.8476 85.222H96.6116C96.3476 86.17 95.8196 86.944 95.0276 87.544C94.2356 88.132 93.2516 88.426 92.0756 88.426C91.1396 88.426 90.2996 88.216 89.5556 87.796C88.8236 87.376 88.2476 86.782 87.8276 86.014C87.4076 85.234 87.1976 84.334 87.1976 83.314C87.1976 82.294 87.4016 81.4 87.8096 80.632C88.2176 79.864 88.7876 79.276 89.5196 78.868C90.2636 78.448 91.1156 78.238 92.0756 78.238C93.0116 78.238 93.8396 78.442 94.5596 78.85C95.2796 79.258 95.8316 79.822 96.2156 80.542C96.6116 81.25 96.8096 82.054 96.8096 82.954ZM95.1176 82.612C95.1176 81.988 94.9796 81.454 94.7036 81.01C94.4276 80.554 94.0496 80.212 93.5696 79.984C93.1016 79.744 92.5796 79.624 92.0036 79.624C91.1756 79.624 90.4676 79.888 89.8796 80.416C89.3036 80.944 88.9736 81.676 88.8896 82.612H95.1176ZM104.3 88.264L100.43 83.908V88.264H98.7917V74.944H100.43V82.774L104.228 78.4H106.514L101.87 83.314L106.532 88.264H104.3ZM107.263 83.296C107.263 82.288 107.467 81.406 107.875 80.65C108.283 79.882 108.841 79.288 109.549 78.868C110.269 78.448 111.067 78.238 111.943 78.238C112.807 78.238 113.557 78.424 114.193 78.796C114.829 79.168 115.303 79.636 115.615 80.2V78.4H117.271V88.264H115.615V86.428C115.291 87.004 114.805 87.484 114.157 87.868C113.521 88.24 112.777 88.426 111.925 88.426C111.049 88.426 110.257 88.21 109.549 87.778C108.841 87.346 108.283 86.74 107.875 85.96C107.467 85.18 107.263 84.292 107.263 83.296ZM115.615 83.314C115.615 82.57 115.465 81.922 115.165 81.37C114.865 80.818 114.457 80.398 113.941 80.11C113.437 79.81 112.879 79.66 112.267 79.66C111.655 79.66 111.097 79.804 110.593 80.092C110.089 80.38 109.687 80.8 109.387 81.352C109.087 81.904 108.937 82.552 108.937 83.296C108.937 84.052 109.087 84.712 109.387 85.276C109.687 85.828 110.089 86.254 110.593 86.554C111.097 86.842 111.655 86.986 112.267 86.986C112.879 86.986 113.437 86.842 113.941 86.554C114.457 86.254 114.865 85.828 115.165 85.276C115.465 84.712 115.615 84.058 115.615 83.314ZM128.384 75.718C129.752 75.718 130.934 75.976 131.93 76.492C132.938 76.996 133.706 77.722 134.234 78.67C134.774 79.618 135.044 80.734 135.044 82.018C135.044 83.302 134.774 84.418 134.234 85.366C133.706 86.302 132.938 87.022 131.93 87.526C130.934 88.018 129.752 88.264 128.384 88.264H124.478V75.718H128.384ZM128.384 86.914C130.004 86.914 131.24 86.488 132.092 85.636C132.944 84.772 133.37 83.566 133.37 82.018C133.37 80.458 132.938 79.24 132.074 78.364C131.222 77.488 129.992 77.05 128.384 77.05H126.116V86.914H128.384ZM146.025 82.954C146.025 83.266 146.007 83.596 145.971 83.944H138.087C138.147 84.916 138.477 85.678 139.077 86.23C139.689 86.77 140.427 87.04 141.291 87.04C141.999 87.04 142.587 86.878 143.055 86.554C143.535 86.218 143.871 85.774 144.063 85.222H145.827C145.563 86.17 145.035 86.944 144.243 87.544C143.451 88.132 142.467 88.426 141.291 88.426C140.355 88.426 139.515 88.216 138.771 87.796C138.039 87.376 137.463 86.782 137.043 86.014C136.623 85.234 136.413 84.334 136.413 83.314C136.413 82.294 136.617 81.4 137.025 80.632C137.433 79.864 138.003 79.276 138.735 78.868C139.479 78.448 140.331 78.238 141.291 78.238C142.227 78.238 143.055 78.442 143.775 78.85C144.495 79.258 145.047 79.822 145.431 80.542C145.827 81.25 146.025 82.054 146.025 82.954ZM144.333 82.612C144.333 81.988 144.195 81.454 143.919 81.01C143.643 80.554 143.265 80.212 142.785 79.984C142.317 79.744 141.795 79.624 141.219 79.624C140.391 79.624 139.683 79.888 139.095 80.416C138.519 80.944 138.189 81.676 138.105 82.612H144.333ZM151.499 88.426C150.743 88.426 150.065 88.3 149.465 88.048C148.865 87.784 148.391 87.424 148.043 86.968C147.695 86.5 147.503 85.966 147.467 85.366H149.159C149.207 85.858 149.435 86.26 149.843 86.572C150.263 86.884 150.809 87.04 151.481 87.04C152.105 87.04 152.597 86.902 152.957 86.626C153.317 86.35 153.497 86.002 153.497 85.582C153.497 85.15 153.305 84.832 152.921 84.628C152.537 84.412 151.943 84.202 151.139 83.998C150.407 83.806 149.807 83.614 149.339 83.422C148.883 83.218 148.487 82.924 148.151 82.54C147.827 82.144 147.665 81.628 147.665 80.992C147.665 80.488 147.815 80.026 148.115 79.606C148.415 79.186 148.841 78.856 149.393 78.616C149.945 78.364 150.575 78.238 151.283 78.238C152.375 78.238 153.257 78.514 153.929 79.066C154.601 79.618 154.961 80.374 155.009 81.334H153.371C153.335 80.818 153.125 80.404 152.741 80.092C152.369 79.78 151.865 79.624 151.229 79.624C150.641 79.624 150.173 79.75 149.825 80.002C149.477 80.254 149.303 80.584 149.303 80.992C149.303 81.316 149.405 81.586 149.609 81.802C149.825 82.006 150.089 82.174 150.401 82.306C150.725 82.426 151.169 82.564 151.733 82.72C152.441 82.912 153.017 83.104 153.461 83.296C153.905 83.476 154.283 83.752 154.595 84.124C154.919 84.496 155.087 84.982 155.099 85.582C155.099 86.122 154.949 86.608 154.649 87.04C154.349 87.472 153.923 87.814 153.371 88.066C152.831 88.306 152.207 88.426 151.499 88.426ZM159.229 79.75V85.564C159.229 86.044 159.331 86.386 159.535 86.59C159.739 86.782 160.093 86.878 160.597 86.878H161.803V88.264H160.327C159.415 88.264 158.731 88.054 158.275 87.634C157.819 87.214 157.591 86.524 157.591 85.564V79.75H156.313V78.4H157.591V75.916H159.229V78.4H161.803V79.75H159.229ZM172.608 82.954C172.608 83.266 172.59 83.596 172.554 83.944H164.67C164.73 84.916 165.06 85.678 165.66 86.23C166.272 86.77 167.01 87.04 167.874 87.04C168.582 87.04 169.17 86.878 169.638 86.554C170.118 86.218 170.454 85.774 170.646 85.222H172.41C172.146 86.17 171.618 86.944 170.826 87.544C170.034 88.132 169.05 88.426 167.874 88.426C166.938 88.426 166.098 88.216 165.354 87.796C164.622 87.376 164.046 86.782 163.626 86.014C163.206 85.234 162.996 84.334 162.996 83.314C162.996 82.294 163.2 81.4 163.608 80.632C164.016 79.864 164.586 79.276 165.318 78.868C166.062 78.448 166.914 78.238 167.874 78.238C168.81 78.238 169.638 78.442 170.358 78.85C171.078 79.258 171.63 79.822 172.014 80.542C172.41 81.25 172.608 82.054 172.608 82.954ZM170.916 82.612C170.916 81.988 170.778 81.454 170.502 81.01C170.226 80.554 169.848 80.212 169.368 79.984C168.9 79.744 168.378 79.624 167.802 79.624C166.974 79.624 166.266 79.888 165.678 80.416C165.102 80.944 164.772 81.676 164.688 82.612H170.916ZM180.098 88.264L176.228 83.908V88.264H174.59V74.944H176.228V82.774L180.026 78.4H182.312L177.668 83.314L182.33 88.264H180.098ZM185.312 74.944V88.264H183.674V74.944H185.312ZM188.769 76.798C188.457 76.798 188.193 76.69 187.977 76.474C187.761 76.258 187.653 75.994 187.653 75.682C187.653 75.37 187.761 75.106 187.977 74.89C188.193 74.674 188.457 74.566 188.769 74.566C189.069 74.566 189.321 74.674 189.525 74.89C189.741 75.106 189.849 75.37 189.849 75.682C189.849 75.994 189.741 76.258 189.525 76.474C189.321 76.69 189.069 76.798 188.769 76.798ZM189.561 78.4V88.264H187.923V78.4H189.561ZM204.514 75.718V77.05H201.094V88.264H199.456V77.05H196.018V75.718H204.514ZM207.952 75.718V83.656C207.952 84.772 208.222 85.6 208.762 86.14C209.314 86.68 210.076 86.95 211.048 86.95C212.008 86.95 212.758 86.68 213.298 86.14C213.85 85.6 214.126 84.772 214.126 83.656V75.718H215.764V83.638C215.764 84.682 215.554 85.564 215.134 86.284C214.714 86.992 214.144 87.52 213.424 87.868C212.716 88.216 211.918 88.39 211.03 88.39C210.142 88.39 209.338 88.216 208.618 87.868C207.91 87.52 207.346 86.992 206.926 86.284C206.518 85.564 206.314 84.682 206.314 83.638V75.718H207.952ZM222.295 88.39C221.467 88.39 220.723 88.246 220.063 87.958C219.415 87.658 218.905 87.25 218.533 86.734C218.161 86.206 217.969 85.6 217.957 84.916H219.703C219.763 85.504 220.003 86.002 220.423 86.41C220.855 86.806 221.479 87.004 222.295 87.004C223.075 87.004 223.687 86.812 224.131 86.428C224.587 86.032 224.815 85.528 224.815 84.916C224.815 84.436 224.683 84.046 224.419 83.746C224.155 83.446 223.825 83.218 223.429 83.062C223.033 82.906 222.499 82.738 221.827 82.558C220.999 82.342 220.333 82.126 219.829 81.91C219.337 81.694 218.911 81.358 218.551 80.902C218.203 80.434 218.029 79.81 218.029 79.03C218.029 78.346 218.203 77.74 218.551 77.212C218.899 76.684 219.385 76.276 220.009 75.988C220.645 75.7 221.371 75.556 222.187 75.556C223.363 75.556 224.323 75.85 225.067 76.438C225.823 77.026 226.249 77.806 226.345 78.778H224.545C224.485 78.298 224.233 77.878 223.789 77.518C223.345 77.146 222.757 76.96 222.025 76.96C221.341 76.96 220.783 77.14 220.351 77.5C219.919 77.848 219.703 78.34 219.703 78.976C219.703 79.432 219.829 79.804 220.081 80.092C220.345 80.38 220.663 80.602 221.035 80.758C221.419 80.902 221.953 81.07 222.637 81.262C223.465 81.49 224.131 81.718 224.635 81.946C225.139 82.162 225.571 82.504 225.931 82.972C226.291 83.428 226.471 84.052 226.471 84.844C226.471 85.456 226.309 86.032 225.985 86.572C225.661 87.112 225.181 87.55 224.545 87.886C223.909 88.222 223.159 88.39 222.295 88.39ZM242.986 75.718V88.264H241.348V82.576H234.958V88.264H233.32V75.718H234.958V81.226H241.348V75.718H242.986ZM244.991 83.296C244.991 82.288 245.195 81.406 245.603 80.65C246.011 79.882 246.569 79.288 247.277 78.868C247.997 78.448 248.795 78.238 249.671 78.238C250.535 78.238 251.285 78.424 251.921 78.796C252.557 79.168 253.031 79.636 253.343 80.2V78.4H254.999V88.264H253.343V86.428C253.019 87.004 252.533 87.484 251.885 87.868C251.249 88.24 250.505 88.426 249.653 88.426C248.777 88.426 247.985 88.21 247.277 87.778C246.569 87.346 246.011 86.74 245.603 85.96C245.195 85.18 244.991 84.292 244.991 83.296ZM253.343 83.314C253.343 82.57 253.193 81.922 252.893 81.37C252.593 80.818 252.185 80.398 251.669 80.11C251.165 79.81 250.607 79.66 249.995 79.66C249.383 79.66 248.825 79.804 248.321 80.092C247.817 80.38 247.415 80.8 247.115 81.352C246.815 81.904 246.665 82.552 246.665 83.296C246.665 84.052 246.815 84.712 247.115 85.276C247.415 85.828 247.817 86.254 248.321 86.554C248.825 86.842 249.383 86.986 249.995 86.986C250.607 86.986 251.165 86.842 251.669 86.554C252.185 86.254 252.593 85.828 252.893 85.276C253.193 84.712 253.343 84.058 253.343 83.314ZM258.811 86.914H263.653V88.264H256.939V86.914L261.727 79.732H256.975V78.4H263.617V79.732L258.811 86.914ZM267.236 78.4V88.264H265.598V78.4H267.236ZM271.486 80.002C271.774 79.438 272.182 79 272.71 78.688C273.25 78.376 273.904 78.22 274.672 78.22V79.912H274.24C272.404 79.912 271.486 80.908 271.486 82.9V88.264H269.848V78.4H271.486V80.002ZM278.021 74.944V88.264H276.383V74.944H278.021ZM282.27 78.4V88.264H280.632V78.4H282.27ZM290.39 88.264L286.52 83.908V88.264H284.882V74.944H286.52V82.774L290.318 78.4H292.604L287.96 83.314L292.622 88.264H290.39ZM306.001 85.474H300.529L299.521 88.264H297.793L302.329 75.79H304.219L308.737 88.264H307.009L306.001 85.474ZM305.533 84.142L303.265 77.806L300.997 84.142H305.533ZM314.026 88.426C313.27 88.426 312.592 88.3 311.992 88.048C311.392 87.784 310.918 87.424 310.57 86.968C310.222 86.5 310.03 85.966 309.994 85.366H311.686C311.734 85.858 311.962 86.26 312.37 86.572C312.79 86.884 313.336 87.04 314.008 87.04C314.632 87.04 315.124 86.902 315.484 86.626C315.844 86.35 316.024 86.002 316.024 85.582C316.024 85.15 315.832 84.832 315.448 84.628C315.064 84.412 314.47 84.202 313.666 83.998C312.934 83.806 312.334 83.614 311.866 83.422C311.41 83.218 311.014 82.924 310.678 82.54C310.354 82.144 310.192 81.628 310.192 80.992C310.192 80.488 310.342 80.026 310.642 79.606C310.942 79.186 311.368 78.856 311.92 78.616C312.472 78.364 313.102 78.238 313.81 78.238C314.902 78.238 315.784 78.514 316.456 79.066C317.128 79.618 317.488 80.374 317.536 81.334H315.898C315.862 80.818 315.652 80.404 315.268 80.092C314.896 79.78 314.392 79.624 313.756 79.624C313.168 79.624 312.7 79.75 312.352 80.002C312.004 80.254 311.83 80.584 311.83 80.992C311.83 81.316 311.932 81.586 312.136 81.802C312.352 82.006 312.616 82.174 312.928 82.306C313.252 82.426 313.696 82.564 314.26 82.72C314.968 82.912 315.544 83.104 315.988 83.296C316.432 83.476 316.81 83.752 317.122 84.124C317.446 84.496 317.614 84.982 317.626 85.582C317.626 86.122 317.476 86.608 317.176 87.04C316.876 87.472 316.45 87.814 315.898 88.066C315.358 88.306 314.734 88.426 314.026 88.426ZM320.604 76.798C320.292 76.798 320.028 76.69 319.812 76.474C319.596 76.258 319.488 75.994 319.488 75.682C319.488 75.37 319.596 75.106 319.812 74.89C320.028 74.674 320.292 74.566 320.604 74.566C320.904 74.566 321.156 74.674 321.36 74.89C321.576 75.106 321.684 75.37 321.684 75.682C321.684 75.994 321.576 76.258 321.36 76.474C321.156 76.69 320.904 76.798 320.604 76.798ZM321.396 78.4V88.264H319.758V78.4H321.396ZM327.5 88.426C326.744 88.426 326.066 88.3 325.466 88.048C324.866 87.784 324.392 87.424 324.044 86.968C323.696 86.5 323.504 85.966 323.468 85.366H325.16C325.208 85.858 325.436 86.26 325.844 86.572C326.264 86.884 326.81 87.04 327.482 87.04C328.106 87.04 328.598 86.902 328.958 86.626C329.318 86.35 329.498 86.002 329.498 85.582C329.498 85.15 329.306 84.832 328.922 84.628C328.538 84.412 327.944 84.202 327.14 83.998C326.408 83.806 325.808 83.614 325.34 83.422C324.884 83.218 324.488 82.924 324.152 82.54C323.828 82.144 323.666 81.628 323.666 80.992C323.666 80.488 323.816 80.026 324.116 79.606C324.416 79.186 324.842 78.856 325.394 78.616C325.946 78.364 326.576 78.238 327.284 78.238C328.376 78.238 329.258 78.514 329.93 79.066C330.602 79.618 330.962 80.374 331.01 81.334H329.372C329.336 80.818 329.126 80.404 328.742 80.092C328.37 79.78 327.866 79.624 327.23 79.624C326.642 79.624 326.174 79.75 325.826 80.002C325.478 80.254 325.304 80.584 325.304 80.992C325.304 81.316 325.406 81.586 325.61 81.802C325.826 82.006 326.09 82.174 326.402 82.306C326.726 82.426 327.17 82.564 327.734 82.72C328.442 82.912 329.018 83.104 329.462 83.296C329.906 83.476 330.284 83.752 330.596 84.124C330.92 84.496 331.088 84.982 331.1 85.582C331.1 86.122 330.95 86.608 330.65 87.04C330.35 87.472 329.924 87.814 329.372 88.066C328.832 88.306 328.208 88.426 327.5 88.426ZM335.23 79.75V85.564C335.23 86.044 335.332 86.386 335.536 86.59C335.74 86.782 336.094 86.878 336.598 86.878H337.804V88.264H336.328C335.416 88.264 334.732 88.054 334.276 87.634C333.82 87.214 333.592 86.524 333.592 85.564V79.75H332.314V78.4H333.592V75.916H335.23V78.4H337.804V79.75H335.23ZM338.997 83.296C338.997 82.288 339.201 81.406 339.609 80.65C340.017 79.882 340.575 79.288 341.283 78.868C342.003 78.448 342.801 78.238 343.677 78.238C344.541 78.238 345.291 78.424 345.927 78.796C346.563 79.168 347.037 79.636 347.349 80.2V78.4H349.005V88.264H347.349V86.428C347.025 87.004 346.539 87.484 345.891 87.868C345.255 88.24 344.511 88.426 343.659 88.426C342.783 88.426 341.991 88.21 341.283 87.778C340.575 87.346 340.017 86.74 339.609 85.96C339.201 85.18 338.997 84.292 338.997 83.296ZM347.349 83.314C347.349 82.57 347.199 81.922 346.899 81.37C346.599 80.818 346.191 80.398 345.675 80.11C345.171 79.81 344.613 79.66 344.001 79.66C343.389 79.66 342.831 79.804 342.327 80.092C341.823 80.38 341.421 80.8 341.121 81.352C340.821 81.904 340.671 82.552 340.671 83.296C340.671 84.052 340.821 84.712 341.121 85.276C341.421 85.828 341.823 86.254 342.327 86.554C342.831 86.842 343.389 86.986 344.001 86.986C344.613 86.986 345.171 86.842 345.675 86.554C346.191 86.254 346.599 85.828 346.899 85.276C347.199 84.712 347.349 84.058 347.349 83.314ZM356.399 78.22C357.599 78.22 358.571 78.586 359.315 79.318C360.059 80.038 360.431 81.082 360.431 82.45V88.264H358.811V82.684C358.811 81.7 358.565 80.95 358.073 80.434C357.581 79.906 356.909 79.642 356.057 79.642C355.193 79.642 354.503 79.912 353.987 80.452C353.483 80.992 353.231 81.778 353.231 82.81V88.264H351.593V78.4H353.231V79.804C353.555 79.3 353.993 78.91 354.545 78.634C355.109 78.358 355.727 78.22 356.399 78.22ZM364.564 78.4V88.264H362.926V78.4H364.564Z" fill="#5AC8FA"/>
<defs>
<linearGradient id="paint0_linear_2_42" x1="336.151" y1="41.664" x2="373.847" y2="41.664" gradientUnits="userSpaceOnUse">
<stop stop-color="#4836B6" stop-opacity="0.9"/>
<stop offset="1" stop-color="#5AC8FA"/>
</linearGradient>
<linearGradient id="paint1_linear_2_42" x1="292.073" y1="41.664" x2="329.769" y2="41.664" gradientUnits="userSpaceOnUse">
<stop stop-color="#4836B6" stop-opacity="0.9"/>
<stop offset="1" stop-color="#5AC8FA"/>
</linearGradient>
<linearGradient id="paint2_linear_2_42" x1="245.82" y1="33.408" x2="283.516" y2="33.408" gradientUnits="userSpaceOnUse">
<stop stop-color="#4836B6" stop-opacity="0.9"/>
<stop offset="1" stop-color="#5AC8FA"/>
</linearGradient>
<linearGradient id="paint3_linear_2_42" x1="227.885" y1="45.824" x2="240.877" y2="45.824" gradientUnits="userSpaceOnUse">
<stop stop-color="#4836B6" stop-opacity="0.9"/>
<stop offset="1" stop-color="#5AC8FA"/>
</linearGradient>
<linearGradient id="paint4_linear_2_42" x1="208.754" y1="25.632" x2="221.746" y2="25.632" gradientUnits="userSpaceOnUse">
<stop stop-color="#4836B6" stop-opacity="0.9"/>
<stop offset="1" stop-color="#5AC8FA"/>
</linearGradient>
<linearGradient id="paint5_linear_2_42" x1="163.525" y1="33.408" x2="201.221" y2="33.408" gradientUnits="userSpaceOnUse">
<stop stop-color="#4836B6" stop-opacity="0.9"/>
<stop offset="1" stop-color="#5AC8FA"/>
</linearGradient>
<linearGradient id="paint6_linear_2_42" x1="127.453" y1="33.408" x2="158.365" y2="33.408" gradientUnits="userSpaceOnUse">
<stop stop-color="#4836B6" stop-opacity="0.9"/>
<stop offset="1" stop-color="#5AC8FA"/>
</linearGradient>
<linearGradient id="paint7_linear_2_42" x1="85.288" y1="33.6" x2="120.872" y2="33.6" gradientUnits="userSpaceOnUse">
<stop stop-color="#4836B6" stop-opacity="0.9"/>
<stop offset="1" stop-color="#5AC8FA"/>
</linearGradient>
<linearGradient id="paint8_linear_2_42" x1="56.344" y1="29.056" x2="78.872" y2="29.056" gradientUnits="userSpaceOnUse">
<stop stop-color="#4836B6" stop-opacity="0.9"/>
<stop offset="1" stop-color="#5AC8FA"/>
</linearGradient>
<clipPath id="clip0_2_42">
<rect width="47" height="45" fill="white" transform="translate(0 7.26401)"/>
</clipPath>
</defs>
</svg>
